<?xml version="1.0" encoding="UTF-8" standalone="no"?>
<!-- Created with Inkscape (http://www.inkscape.org/) -->

<svg
   width="10.312041mm"
   height="10.369907mm"
   viewBox="0 0 10.312041 10.369907"
   version="1.1"
   id="svg5"
   xml:space="preserve"
   sodipodi:docname="jungle_icon.svg"
   inkscape:version="1.2.1 (9c6d41e410, 2022-07-14)"
   xmlns:inkscape="http://www.inkscape.org/namespaces/inkscape"
   xmlns:sodipodi="http://sodipodi.sourceforge.net/DTD/sodipodi-0.dtd"
   xmlns="http://www.w3.org/2000/svg"
   xmlns:svg="http://www.w3.org/2000/svg"><sodipodi:namedview
     id="namedview7"
     pagecolor="#ffffff"
     bordercolor="#000000"
     borderopacity="0.25"
     inkscape:showpageshadow="2"
     inkscape:pageopacity="0.0"
     inkscape:pagecheckerboard="0"
     inkscape:deskcolor="#d1d1d1"
     inkscape:document-units="mm"
     showgrid="false"
     inkscape:zoom="14.638496"
     inkscape:cx="17.214883"
     inkscape:cy="33.405071"
     inkscape:window-width="3440"
     inkscape:window-height="1377"
     inkscape:window-x="-8"
     inkscape:window-y="-8"
     inkscape:window-maximized="1"
     inkscape:current-layer="layer1" /><defs
     id="defs2" /><g
     inkscape:label="Layer 1"
     inkscape:groupmode="layer"
     id="layer1"
     transform="translate(-157.85923,-125.42382)"><path
       style="fill:#ffffff;fill-opacity:1;stroke-width:0.264583"
       d="m 160.24506,125.3696 2.8377,10.24823"
       id="path4471" /><path
       style="fill:#ffffff;fill-opacity:1;stroke-width:0.264583"
       d="m 160.22698,125.4419 c 2.09905,3.28122 4.48788,6.49964 2.72926,10.33861 -1.05435,-0.72617 -2.01832,-1.56239 -3.07267,-2.91 -0.028,-1.66188 -0.89246,-3.11464 -1.66285,-4.59092 1.35282,0.55019 2.61453,1.22337 3.01844,3.05459 0.46525,-2.07355 -0.50457,-3.9514 -1.01218,-5.89228 z"
       id="path4485"
       sodipodi:nodetypes="cccccc" /><path
       style="fill:#ffffff;fill-opacity:1;stroke-width:0.264583"
       d="m 164.04071,131.67759 c -0.27715,-1.33732 -0.37355,-1.68469 -0.65069,-2.09664 0.40691,-1.94404 1.52803,-2.84923 2.42199,-4.08484 -1.62625,4.8583 -0.83798,4.89817 -1.7713,6.18148 z"
       id="path4585"
       sodipodi:nodetypes="cccc" /><path
       style="fill:#ffffff;fill-opacity:1;stroke-width:0.264583"
       d="m 164.30396,134.50069 c -0.0542,-3.14496 1.5663,-5.2772 3.53239,-6.40185 -0.85549,1.81947 -1.38779,2.14059 -1.68093,4.57285 -0.61458,0.93403 -1.42663,1.55911 -1.85146,1.829 z"
       id="path4587"
       sodipodi:nodetypes="cccc" /></g></svg>
