<?xml version="1.0" encoding="UTF-8" standalone="no"?>
<!-- Created with Inkscape (http://www.inkscape.org/) -->

<svg
   width="10.312041mm"
   height="10.369907mm"
   viewBox="0 0 10.312041 10.369907"
   version="1.1"
   id="svg5"
   xml:space="preserve"
   sodipodi:docname="support_icon.svg"
   inkscape:version="1.2.1 (9c6d41e410, 2022-07-14)"
   xmlns:inkscape="http://www.inkscape.org/namespaces/inkscape"
   xmlns:sodipodi="http://sodipodi.sourceforge.net/DTD/sodipodi-0.dtd"
   xmlns="http://www.w3.org/2000/svg"
   xmlns:svg="http://www.w3.org/2000/svg"><sodipodi:namedview
     id="namedview7"
     pagecolor="#ffffff"
     bordercolor="#000000"
     borderopacity="0.25"
     inkscape:showpageshadow="2"
     inkscape:pageopacity="0.0"
     inkscape:pagecheckerboard="0"
     inkscape:deskcolor="#d1d1d1"
     inkscape:document-units="mm"
     showgrid="false"
     inkscape:zoom="14.638496"
     inkscape:cx="17.214883"
     inkscape:cy="33.405071"
     inkscape:window-width="3440"
     inkscape:window-height="1377"
     inkscape:window-x="-8"
     inkscape:window-y="-8"
     inkscape:window-maximized="1"
     inkscape:current-layer="layer1" /><defs
     id="defs2" /><g
     inkscape:label="Layer 1"
     inkscape:groupmode="layer"
     id="layer1"
     transform="translate(-157.85923,-125.42382)"><g
       id="g8861"
       transform="translate(-0.00310936,0.422325)"
       style="fill:#ffffff"><path
         style="fill:#ffffff;fill-opacity:1;stroke-width:0.264583"
         d="m 160.24506,125.3696 2.8377,10.24823"
         id="path4471" /><path
         style="fill:#ffffff;fill-opacity:1;stroke-width:0.282726"
         d="m 164.65313,127.4572 -1.02365,1.04295 0.77257,2.33697 1.68031,-0.7146 -0.96569,-1.29404 1.10088,0.0772 c 1.14909,-0.33408 1.49868,-1.02878 1.98933,-1.40991 z"
         id="path7570-5"
         sodipodi:nodetypes="cccccccc" /><path
         style="fill:#ffffff;fill-opacity:1;stroke-width:0.282726"
         d="m 161.38359,127.4572 1.02365,1.04295 -0.77257,2.33697 -1.68031,-0.7146 0.96569,-1.29404 -1.10088,0.0772 c -1.14909,-0.33408 -1.49868,-1.02878 -1.98933,-1.40991 z"
         id="path7570-5-8"
         sodipodi:nodetypes="cccccccc" /><path
         id="path7652"
         style="fill:#ffffff;fill-opacity:1;stroke-width:0.304212"
         d="m 164.304,125.42382 -1.30954,0.0208 v 0.0104 l -1.26735,-0.0202 -0.47831,0.87283 1.76645,1.89123 v -0.0103 l 1.76645,-1.89122 z" /><path
         id="path7677"
         style="fill:#ffffff;fill-opacity:1;stroke-width:0.270007"
         d="m 162.74421,128.85311 -1.04852,5.1196 1.3193,1.24264 1.31982,-1.24264 -1.04852,-5.1196 -0.2713,0.15661 z" /></g></g></svg>
